<svg width="28" height="28" viewBox="0 0 28 28" fill="none" xmlns="http://www.w3.org/2000/svg">
<g id="bell">
<path id="Vector" d="M21 9.33333C21 7.47681 20.2625 5.69634 18.9497 4.38358C17.637 3.07083 15.8565 2.33333 14 2.33333C12.1435 2.33333 10.363 3.07083 9.05025 4.38358C7.7375 5.69634 7 7.47681 7 9.33333C7 17.5 3.5 19.8333 3.5 19.8333H24.5C24.5 19.8333 21 17.5 21 9.33333Z" stroke="#F1E809" stroke-width="2" stroke-linecap="round" stroke-linejoin="round"/>
<path id="Vector_2" d="M16.0181 24.5C15.813 24.8536 15.5186 25.1471 15.1644 25.3511C14.8102 25.5551 14.4086 25.6625 13.9998 25.6625C13.591 25.6625 13.1894 25.5551 12.8352 25.3511C12.481 25.1471 12.1866 24.8536 11.9814 24.5" stroke="#F1E809" stroke-width="2" stroke-linecap="round" stroke-linejoin="round"/>
</g>
</svg>
